<?xml version="1.0" standalone="no"?>
<!DOCTYPE svg PUBLIC "-//W3C//DTD SVG 20010904//EN"
 "http://www.w3.org/TR/2001/REC-SVG-20010904/DTD/svg10.dtd">
<svg version="1.0" xmlns="http://www.w3.org/2000/svg"
 width="1512.000000pt" height="1512.000000pt" viewBox="0 0 1512.000000 1512.000000"
 preserveAspectRatio="xMidYMid meet">

<g transform="translate(0.000000,1512.000000) scale(0.100000,-0.100000)"
fill="#000000" stroke="none">
<path d="M1970 15015 c-273 -45 -481 -151 -666 -340 -163 -167 -261 -353 -309
-585 -22 -111 -20 -379 4 -490 54 -242 162 -432 344 -606 222 -212 482 -314
801 -314 148 0 202 7 334 41 l42 12 208 -213 c114 -117 211 -220 216 -228 7
-12 -11 -34 -80 -96 -154 -139 -331 -316 -467 -466 -73 -80 -135 -147 -138
-150 -13 -11 -240 -292 -315 -390 -88 -114 -231 -323 -335 -490 -60 -96 -77
-124 -136 -230 -11 -19 -45 -78 -75 -130 -48 -84 -169 -325 -226 -451 -48
-105 -105 -239 -138 -324 -19 -49 -39 -99 -44 -110 -87 -204 -235 -716 -301
-1040 -85 -421 -128 -882 -129 -1355 0 -337 26 -706 70 -975 32 -204 45 -275
71 -406 32 -163 82 -364 135 -544 40 -136 147 -457 174 -525 78 -195 169 -409
202 -480 59 -126 181 -366 222 -438 20 -35 36 -65 36 -67 0 -11 205 -345 285
-464 83 -124 278 -396 295 -411 3 -3 21 -25 40 -50 19 -25 42 -54 52 -65 9
-11 55 -67 103 -125 221 -266 599 -647 820 -827 33 -26 67 -54 75 -62 67 -64
338 -266 510 -381 69 -45 137 -91 151 -101 44 -30 238 -149 244 -149 2 0 26
-13 52 -29 92 -56 160 -92 368 -195 360 -178 708 -313 1140 -445 208 -63 513
-133 765 -176 52 -9 120 -20 150 -25 58 -10 232 -31 410 -50 120 -12 510 -32
645 -33 339 -1 887 53 1265 125 170 32 509 111 590 138 14 5 52 16 85 25 33
10 78 23 100 31 22 7 83 26 135 43 143 44 340 116 445 162 11 5 43 17 70 28
104 40 514 237 640 308 408 230 683 414 1015 679 63 51 124 100 135 111 11 10
36 31 55 47 201 165 589 555 771 776 29 36 59 71 67 79 22 22 204 260 276 359
176 244 322 475 453 717 105 193 313 624 313 648 0 7 4 17 8 22 26 29 193 500
257 720 9 33 23 80 30 105 12 38 40 152 105 425 13 52 45 224 65 350 80 491
102 1176 55 1720 -8 102 -13 144 -41 345 -17 127 -40 260 -61 365 -11 55 -24
120 -29 145 -15 79 -80 331 -111 435 -125 418 -267 783 -453 1160 -110 222
-248 473 -320 580 -11 16 -24 37 -30 47 -125 214 -441 641 -624 843 -298 330
-336 368 -618 623 -50 45 -104 93 -120 105 -15 12 -30 24 -33 27 -3 3 -59 48
-125 101 -271 215 -648 468 -935 627 -130 72 -477 246 -560 281 -30 13 -77 34
-105 46 -181 81 -522 204 -750 270 -66 20 -142 42 -170 50 -80 23 -206 56
-255 66 -25 5 -76 16 -115 24 -305 67 -569 106 -940 140 -422 38 -1109 26
-1455 -25 -36 -6 -119 -17 -185 -25 -66 -9 -140 -20 -165 -25 -25 -5 -85 -16
-135 -25 -120 -22 -383 -80 -470 -106 -16 -5 -82 -23 -145 -40 -248 -69 -665
-215 -870 -306 -160 -71 -209 -94 -370 -174 -270 -135 -526 -288 -752 -452
-53 -38 -71 -46 -85 -38 -26 14 -413 410 -413 423 0 6 15 36 34 67 96 161 155
310 181 463 41 231 -5 526 -113 728 -83 154 -218 309 -359 412 -66 48 -217
126 -293 152 -193 63 -374 80 -550 51z m350 -642 c172 -64 310 -215 355 -389
47 -179 -21 -402 -164 -537 -113 -106 -215 -147 -367 -147 -86 0 -115 4 -176
26 -89 33 -139 63 -201 123 -68 65 -110 125 -143 206 -26 64 -28 80 -29 200 0
138 2 147 59 264 74 153 252 269 436 283 57 5 182 -11 230 -29z m5510 -1138
c157 -8 328 -19 380 -25 293 -33 548 -74 590 -93 l25 -12 3 -1954 c1 -1436 -1
-1957 -9 -1967 -9 -11 -52 -14 -193 -14 -194 0 -323 -12 -396 -36 -251 -85
-426 -288 -469 -545 -15 -90 -15 -2201 0 -2302 25 -171 89 -288 226 -418 79
-74 206 -143 303 -165 41 -9 151 -16 294 -20 126 -3 233 -7 238 -10 4 -3 8
-1084 8 -2403 0 -2354 0 -2398 -19 -2415 -11 -10 -47 -21 -83 -26 -35 -5 -124
-18 -198 -28 -392 -57 -489 -65 -945 -70 -272 -2 -454 0 -540 8 -298 27 -347
33 -535 65 -52 9 -117 20 -145 25 -98 17 -382 86 -575 140 -134 38 -451 148
-545 189 -11 5 -56 24 -100 41 -90 37 -145 61 -292 131 -57 27 -105 49 -106
49 -4 0 -278 152 -404 224 -285 163 -761 520 -1047 786 -164 152 -387 388
-539 570 -95 113 -95 113 -147 180 -19 25 -37 47 -40 50 -15 13 -222 305 -275
388 -33 51 -84 130 -113 175 -29 45 -56 89 -60 97 -4 8 -32 60 -63 115 -202
360 -321 616 -447 960 -83 225 -169 513 -207 690 -9 44 -21 94 -25 110 -5 17
-16 71 -25 120 -9 50 -21 113 -26 140 -52 262 -84 667 -84 1060 0 311 7 470
31 685 31 280 91 609 154 840 5 19 19 71 31 115 49 183 168 532 233 680 7 17
27 66 45 110 54 134 196 410 212 410 13 0 25 -29 48 -120 62 -245 157 -537
253 -775 28 -67 43 -103 95 -220 23 -52 137 -279 163 -325 110 -197 311 -504
349 -535 4 -3 20 -23 36 -46 28 -38 86 -107 180 -213 22 -25 74 -79 115 -121
65 -65 112 -108 285 -259 45 -40 169 -130 270 -198 50 -33 113 -75 140 -94
110 -74 173 -163 211 -299 17 -59 18 -113 19 -585 0 -384 3 -537 13 -585 7
-36 20 -99 28 -140 87 -418 331 -802 674 -1060 341 -256 486 -456 539 -745 17
-94 41 -306 41 -362 0 -112 56 -553 100 -788 90 -478 358 -902 751 -1187 121
-88 190 -128 354 -207 135 -65 196 -86 219 -78 18 7 22 0 -78 167 -93 156
-170 333 -206 475 -4 17 -15 57 -25 90 -71 258 -95 414 -94 630 0 401 86 710
288 1035 56 90 263 385 281 400 3 3 32 41 63 85 31 44 60 85 65 90 56 73 231
355 264 425 101 217 131 323 149 518 34 360 -73 631 -339 858 -80 68 -272 192
-402 258 -192 99 -324 182 -377 238 -27 29 -80 102 -259 360 -100 144 -260
285 -439 387 -162 92 -361 158 -640 211 -168 32 -220 45 -305 77 -52 19 -123
48 -158 64 -35 16 -65 29 -68 29 -11 0 -192 91 -274 138 -467 269 -884 684
-1202 1197 -172 277 -319 589 -421 896 -76 227 -94 288 -136 464 -59 244 -61
255 -72 326 -15 100 -38 263 -39 275 0 11 65 113 80 124 3 3 28 33 54 68 26
35 65 83 85 106 20 24 56 67 81 97 159 190 438 478 620 640 52 46 97 86 100
89 3 3 39 32 80 65 41 32 77 61 80 65 13 14 323 241 390 285 41 28 77 53 78
58 2 4 8 7 14 7 6 0 25 10 42 23 126 93 672 388 845 457 27 10 68 28 92 39
200 93 683 251 964 316 61 14 128 30 150 35 58 14 301 56 435 74 258 35 275
36 735 59 141 7 226 6 495 -8z m1742 -325 c13 0 32 -7 42 -15 11 -8 29 -15 41
-15 12 0 25 -4 31 -8 5 -4 34 -16 64 -26 30 -10 69 -24 87 -32 17 -8 38 -14
47 -14 9 0 16 -4 16 -10 0 -5 7 -10 15 -10 8 0 31 -7 52 -16 21 -9 49 -21 63
-27 39 -15 80 -33 140 -60 30 -14 62 -28 70 -31 8 -3 22 -10 30 -15 8 -5 30
-16 48 -23 l32 -13 1 -200 c1 -110 1 -497 0 -859 l-3 -660 -56 -35 c-95 -58
-252 -232 -252 -279 0 -7 -4 -12 -10 -12 -5 0 -10 -10 -10 -23 0 -13 -7 -32
-15 -43 -8 -10 -15 -33 -15 -51 0 -17 -4 -35 -10 -38 -6 -4 -10 -65 -10 -150
0 -85 4 -146 10 -150 6 -3 10 -18 10 -32 0 -13 6 -37 14 -51 8 -15 23 -46 32
-69 10 -24 21 -43 26 -43 4 0 8 -5 8 -11 0 -12 55 -83 95 -124 48 -47 113 -93
170 -119 33 -16 69 -33 80 -39 51 -28 303 -42 400 -23 113 22 263 102 339 181
69 71 116 129 116 141 0 6 7 17 15 24 8 7 15 21 15 31 0 11 5 19 10 19 6 0 10
8 10 18 0 10 7 27 15 38 8 10 15 36 15 56 0 20 5 40 10 43 6 4 10 58 10 130 0
72 -4 126 -10 130 -5 3 -10 17 -10 30 0 23 -21 80 -41 115 -5 8 -12 22 -16 30
-12 28 -77 115 -109 145 -51 49 -134 119 -152 129 -9 5 -19 12 -22 15 -3 3
-14 11 -25 17 -20 11 -20 23 -23 703 -1 380 2 691 6 691 8 0 23 -11 69 -50 7
-5 19 -10 28 -10 8 0 15 -3 15 -7 0 -5 24 -24 53 -43 28 -19 58 -41 65 -47 7
-7 17 -13 21 -13 4 0 16 -8 27 -17 10 -10 36 -29 56 -43 21 -14 38 -28 38 -32
0 -5 6 -8 14 -8 8 0 16 -4 18 -8 2 -4 38 -34 81 -65 81 -60 106 -80 168 -137
l38 -35 5 -714 c5 -724 12 -967 28 -977 4 -3 8 -13 8 -23 0 -21 58 -134 71
-139 5 -2 9 -8 9 -14 0 -22 137 -118 170 -118 11 0 20 -4 20 -8 0 -4 34 -14
76 -22 62 -11 94 -11 166 -1 49 6 99 17 111 23 117 60 128 67 192 125 29 26
67 81 89 128 11 22 23 48 27 57 5 9 11 36 15 60 3 24 11 53 17 66 8 17 8 34 0
65 -7 23 -15 66 -19 95 -4 29 -11 55 -15 58 -5 3 -9 13 -9 23 0 10 -7 24 -15
31 -8 7 -15 19 -15 27 0 8 -6 20 -12 28 -7 7 -22 26 -33 41 -47 68 -181 174
-218 174 -7 0 -18 5 -23 10 -6 6 -33 13 -60 16 l-49 6 2 137 c1 75 3 174 4
221 0 47 -2 93 -6 103 -4 10 -3 17 4 17 10 0 24 -14 137 -139 27 -30 60 -66
74 -81 44 -47 70 -80 70 -88 0 -4 18 -27 40 -51 22 -23 40 -47 40 -52 0 -5 5
-9 10 -9 6 0 10 -7 10 -15 0 -9 7 -18 15 -21 8 -4 15 -12 15 -19 0 -7 4 -15 8
-17 4 -1 18 -20 31 -40 12 -21 27 -38 32 -38 5 0 9 -5 9 -10 0 -10 8 -22 38
-55 6 -7 12 -18 12 -23 0 -6 3 -12 8 -14 8 -3 72 -96 72 -104 0 -3 11 -20 25
-38 14 -18 25 -35 25 -38 0 -3 18 -33 40 -66 22 -33 40 -64 40 -70 0 -6 3 -12
8 -14 4 -2 16 -21 27 -43 11 -22 22 -42 26 -45 3 -3 21 -36 40 -75 18 -38 36
-72 39 -75 5 -5 134 -265 144 -290 3 -8 10 -22 15 -30 19 -32 61 -122 61 -132
0 -6 -82 -93 -182 -193 -101 -100 -388 -388 -638 -639 l-455 -456 -357 0 -358
1 0 174 c0 105 -4 176 -10 180 -5 3 -10 16 -10 28 0 32 -71 167 -123 235 -56
72 -141 150 -193 177 -21 11 -56 30 -76 42 -21 13 -46 23 -56 23 -10 0 -23 5
-29 11 -27 27 -145 33 -735 36 l-608 3 0 1873 c0 1031 3 1876 6 1880 4 3 19 0
35 -8 15 -8 38 -15 51 -15z m1153 -2481 c5 -5 16 -9 24 -9 37 0 91 -97 91
-164 0 -41 -38 -112 -75 -140 -29 -22 -44 -26 -103 -26 -50 0 -73 4 -82 15 -7
8 -17 15 -22 15 -11 0 -28 16 -51 50 -23 33 -24 162 -2 180 8 7 15 16 15 21 0
14 38 49 53 49 7 0 17 4 23 9 21 21 107 20 129 0z m1390 -49 c3 -5 15 -10 25
-10 10 0 32 -14 49 -31 27 -26 31 -38 31 -81 0 -39 -6 -59 -26 -85 -14 -18
-33 -33 -43 -33 -9 0 -22 -5 -29 -12 -16 -16 -88 7 -124 41 -24 22 -28 32 -28
83 0 46 5 63 23 84 35 41 108 67 122 44z m1453 -1491 c2 -13 10 -38 18 -56 8
-17 14 -40 14 -50 0 -11 3 -23 7 -27 7 -6 45 -148 63 -231 5 -22 13 -53 19
-68 6 -16 11 -43 11 -62 0 -19 4 -36 9 -39 4 -3 11 -33 15 -65 4 -33 11 -63
16 -66 6 -4 10 -28 10 -54 0 -27 7 -68 15 -91 8 -23 15 -69 15 -101 0 -32 5
-61 10 -64 6 -3 10 -34 10 -68 0 -34 5 -80 11 -102 28 -108 42 -850 22 -1175
-12 -186 -31 -368 -43 -420 -5 -19 -14 -71 -20 -115 -25 -176 -49 -298 -61
-309 -5 -6 -9 -24 -10 -40 0 -35 -32 -162 -42 -172 -4 -4 -7 -23 -7 -41 0 -19
-5 -44 -12 -56 -6 -12 -15 -38 -19 -57 -18 -81 -31 -126 -40 -135 -5 -5 -9
-17 -9 -28 0 -16 -47 -166 -56 -176 -1 -2 -18 14 -36 35 -76 89 -1295 1297
-1318 1306 -22 8 -637 11 -783 4 -26 -1 -50 1 -53 5 -3 5 -5 95 -5 201 l0 193
553 0 c536 0 553 -1 556 -19 5 -23 81 -109 143 -161 57 -48 163 -105 193 -105
12 0 26 -4 32 -10 9 -9 87 -25 183 -37 43 -5 178 18 213 38 10 5 26 9 35 9 46
0 192 91 259 162 42 43 114 149 114 166 0 5 7 15 15 22 8 7 15 22 15 34 0 12
4 26 9 32 16 16 34 127 34 204 0 77 -18 188 -34 205 -5 5 -9 17 -9 26 0 19
-31 82 -42 87 -5 2 -8 8 -8 14 0 23 -90 125 -175 197 -15 13 -55 37 -89 53
-34 16 -69 34 -78 39 -10 5 -26 9 -35 9 -10 0 -36 7 -58 15 -76 27 -275 13
-375 -27 -137 -55 -278 -172 -329 -273 -12 -24 -26 -47 -32 -50 -5 -4 -9 -17
-9 -31 l0 -24 -541 2 -540 3 0 150 0 150 475 3 476 2 515 515 c284 283 520
515 525 515 4 0 10 5 12 10 6 20 222 230 232 227 6 -2 12 -14 14 -28z m-2998
-324 c7 -8 17 -15 23 -15 6 0 25 -17 44 -37 l33 -38 1 -620 c0 -341 1 -810 2
-1042 0 -381 -1 -425 -16 -441 -10 -10 -17 -23 -17 -28 0 -5 -20 -21 -45 -37
l-46 -27 -1020 0 -1019 0 -39 24 c-21 14 -48 40 -60 59 l-21 34 0 1031 c0
1159 -6 1074 75 1125 l40 25 1026 1 c901 1 1028 -1 1039 -14z m2445 -1295 c3
-5 19 -10 34 -10 16 0 34 -7 41 -15 7 -8 18 -15 24 -15 11 0 28 -22 53 -69 15
-28 17 -121 3 -121 -5 0 -10 -6 -10 -12 -1 -17 -38 -58 -72 -80 -30 -20 -138
-25 -138 -8 0 6 -7 10 -16 10 -24 0 -77 58 -91 100 -17 48 -15 80 8 115 11 17
22 38 25 48 4 9 12 17 19 17 7 0 18 7 25 15 7 8 23 15 36 15 12 0 26 5 29 10
3 6 10 10 15 10 5 0 12 -4 15 -10z m-1099 -1562 c31 -29 346 -342 700 -695
l644 -642 -39 -78 c-94 -190 -111 -223 -155 -308 -47 -88 -56 -105 -109 -195
-15 -25 -30 -53 -33 -62 -4 -10 -10 -18 -15 -18 -5 0 -9 -5 -9 -12 0 -11 -57
-107 -70 -118 -4 -3 -27 -39 -53 -80 -25 -41 -60 -91 -77 -110 -16 -19 -30
-38 -30 -41 0 -5 -13 -22 -50 -66 -5 -7 -10 -15 -10 -18 0 -4 -16 -23 -35 -43
-19 -20 -35 -40 -35 -43 0 -3 -8 -15 -17 -26 -10 -11 -36 -42 -58 -69 -22 -27
-54 -64 -72 -83 -18 -18 -35 -42 -38 -52 -20 -63 -25 35 -25 503 0 501 0 510
20 515 11 3 20 9 20 13 0 5 9 12 20 15 24 8 150 127 150 142 0 6 7 16 15 23 8
7 15 21 15 30 0 10 3 20 8 22 40 18 59 288 26 365 -73 167 -161 259 -304 317
-25 10 -53 22 -62 27 -24 12 -265 12 -273 -1 -3 -5 -16 -10 -28 -10 -62 0
-230 -124 -273 -202 -11 -18 -21 -35 -24 -38 -10 -9 -38 -83 -50 -131 -12 -46
-9 -177 5 -234 15 -61 67 -151 115 -200 l50 -50 0 -851 0 -851 -54 -49 c-29
-27 -73 -65 -96 -84 -40 -33 -56 -46 -107 -90 -12 -10 -30 -23 -41 -29 -11 -6
-26 -17 -34 -24 -7 -7 -33 -28 -58 -47 -25 -19 -46 -38 -48 -42 -2 -5 -10 -8
-17 -8 -7 0 -15 -7 -19 -15 -3 -8 -11 -15 -18 -15 -7 0 -25 -11 -40 -25 -15
-14 -30 -25 -33 -25 -3 0 -11 -5 -18 -10 -28 -23 -137 -100 -143 -100 -5 0
-124 -80 -134 -90 -3 -3 -22 -14 -42 -25 -21 -11 -38 -23 -38 -27 0 -5 -7 -8
-15 -8 -14 0 -61 -25 -75 -40 -3 -3 -14 -10 -25 -16 -86 -47 -146 -81 -177
-101 -21 -12 -42 -23 -48 -23 -6 0 -27 -10 -48 -23 -35 -22 -85 -47 -293 -146
-48 -23 -94 -41 -103 -41 -9 0 -16 -4 -16 -10 0 -5 -5 -10 -11 -10 -6 0 -26
-7 -45 -15 -19 -8 -49 -22 -68 -30 -19 -8 -39 -15 -45 -15 -6 0 -19 -4 -29 -9
-39 -21 -91 -41 -105 -41 -9 0 -19 -4 -22 -10 -3 -5 -14 -10 -23 -10 -9 0 -30
-7 -46 -15 -15 -8 -36 -15 -46 -15 -10 0 -31 -7 -46 -15 -16 -8 -35 -15 -42
-15 -10 0 -12 466 -10 2316 l3 2316 432 1 c283 1 433 -1 433 -8 0 -5 1 -125 1
-265 l1 -255 -81 -55 c-96 -66 -168 -148 -216 -245 -11 -22 -23 -42 -26 -45
-3 -3 -9 -16 -12 -30 -3 -14 -10 -43 -16 -65 -35 -137 -37 -179 -12 -303 8
-45 14 -67 37 -137 19 -60 163 -244 191 -245 6 0 13 -5 15 -11 4 -13 63 -49
128 -79 25 -11 53 -25 62 -30 10 -6 25 -10 33 -10 9 0 38 -7 65 -16 37 -12 74
-15 152 -11 119 5 188 21 271 63 16 8 33 14 39 14 31 0 193 144 247 220 36 50
91 159 91 180 0 9 7 34 15 53 20 48 20 227 0 282 -8 22 -15 50 -15 62 0 12 -4
24 -9 28 -5 3 -12 19 -16 35 -4 17 -10 30 -15 30 -4 0 -10 8 -13 18 -13 39
-55 99 -108 153 -70 70 -160 139 -182 139 -16 0 -17 28 -17 310 l0 310 450 0
450 0 56 -52z m-1195 -1012 c31 -13 56 -33 86 -69 6 -8 17 -34 23 -58 16 -58
-2 -111 -55 -166 -39 -42 -41 -43 -107 -43 -80 0 -115 17 -152 75 -20 33 -26
54 -26 101 0 55 3 63 41 107 22 26 49 47 59 47 10 0 22 5 25 10 9 15 67 12
106 -4z m1447 -185 c29 -27 32 -35 32 -90 0 -67 -16 -90 -77 -116 -28 -12 -38
-12 -67 0 -62 26 -88 92 -66 161 18 53 46 73 100 74 37 0 52 -6 78 -29z"/>
<path d="M5670 12009 c-329 -25 -752 -128 -1047 -255 -17 -8 -34 -14 -37 -14
-3 0 -63 -28 -133 -62 -297 -143 -547 -313 -829 -564 -28 -25 -53 -75 -46 -94
7 -20 53 -87 86 -125 30 -35 166 -223 166 -230 0 -2 15 -28 34 -57 48 -77 102
-198 152 -344 26 -78 44 -200 44 -306 0 -195 -58 -364 -210 -616 -75 -125
-114 -218 -130 -312 -15 -87 -8 -134 30 -216 25 -55 105 -191 120 -204 3 -3
25 -32 50 -65 56 -77 99 -124 180 -201 133 -126 235 -196 445 -304 227 -118
298 -168 461 -329 133 -133 144 -141 181 -141 81 0 108 55 117 240 16 349 173
731 460 1120 80 108 276 313 382 401 106 86 242 175 362 234 223 111 384 140
613 112 74 -9 170 -24 214 -32 135 -25 168 0 209 160 43 167 36 347 -19 510
-53 156 -114 250 -239 367 -118 111 -308 201 -480 228 -132 21 -445 11 -606
-19 -217 -41 -245 -44 -297 -33 -94 20 -155 87 -157 173 -2 84 75 163 215 220
108 44 199 58 430 68 180 7 223 12 260 28 75 33 116 82 139 166 46 169 -96
359 -326 436 -185 62 -479 84 -794 60z"/>
<path d="M9510 12835 c0 -11 5 -27 10 -35 8 -12 10 -12 10 5 0 11 -5 27 -10
35 -8 12 -10 12 -10 -5z"/>
<path d="M9618 12843 c6 -2 18 -2 25 0 6 3 1 5 -13 5 -14 0 -19 -2 -12 -5z"/>
<path d="M9522 12730 c0 -14 2 -19 5 -12 2 6 2 18 0 25 -3 6 -5 1 -5 -13z"/>
<path d="M9908 12743 c7 -3 16 -2 19 1 4 3 -2 6 -13 5 -11 0 -14 -3 -6 -6z"/>
<path d="M9514 12619 c-3 -6 -1 -16 5 -22 8 -8 11 -5 11 11 0 24 -5 28 -16 11z"/>
<path d="M10208 12613 c7 -3 16 -2 19 1 4 3 -2 6 -13 5 -11 0 -14 -3 -6 -6z"/>
<path d="M9517 12553 c-11 -10 -8 -63 3 -63 6 0 10 16 10 35 0 36 -2 40 -13
28z"/>
<path d="M9517 12453 c-11 -10 -8 -43 3 -43 6 0 10 11 10 25 0 26 -2 29 -13
18z"/>
<path d="M10990 11690 c0 -288 2 -521 5 -518 8 8 10 1027 2 1035 -4 3 -7 -229
-7 -517z"/>
<path d="M11150 12090 c19 -13 30 -13 30 0 0 6 -10 10 -22 10 -19 0 -20 -2 -8
-10z"/>
<path d="M12231 11148 c0 -7 4 -22 9 -33 7 -17 9 -15 9 13 1 17 -3 32 -9 32
-5 0 -10 -6 -9 -12z"/>
<path d="M9523 11060 c0 -41 2 -58 4 -37 2 20 2 54 0 75 -2 20 -4 3 -4 -38z"/>
<path d="M10992 11003 c-2 -82 0 -93 17 -103 24 -12 41 -13 41 -1 0 5 -11 12
-25 15 -23 6 -24 10 -28 94 l-3 87 -2 -92z"/>
<path d="M9523 10935 c0 -27 2 -38 4 -22 2 15 2 37 0 50 -2 12 -4 0 -4 -28z"/>
<path d="M11122 10850 c0 -14 2 -19 5 -12 2 6 2 18 0 25 -3 6 -5 1 -5 -13z"/>
<path d="M12241 10824 c0 -11 3 -14 6 -6 3 7 2 16 -1 19 -3 4 -6 -2 -5 -13z"/>
<path d="M9522 10770 c0 -14 2 -19 5 -12 2 6 2 18 0 25 -3 6 -5 1 -5 -13z"/>
<path d="M12571 10764 c0 -11 3 -14 6 -6 3 7 2 16 -1 19 -3 4 -6 -2 -5 -13z"/>
<path d="M11613 10705 c0 -27 2 -38 4 -22 2 15 2 37 0 50 -2 12 -4 0 -4 -28z"/>
<path d="M11300 10626 c0 -9 5 -16 10 -16 6 0 10 4 10 9 0 6 -4 13 -10 16 -5
3 -10 -1 -10 -9z"/>
<path d="M11612 10590 c0 -19 2 -27 5 -17 2 9 2 25 0 35 -3 9 -5 1 -5 -18z"/>
<path d="M12685 10590 c3 -5 10 -10 16 -10 5 0 9 5 9 10 0 6 -7 10 -16 10 -8
0 -12 -4 -9 -10z"/>
<path d="M9511 10368 c1 -101 5 -289 8 -418 7 -222 7 -212 9 183 1 272 -1 417
-8 417 -6 0 -10 -67 -9 -182z"/>
<path d="M12625 10510 c3 -5 8 -10 11 -10 2 0 4 5 4 10 0 6 -5 10 -11 10 -5 0
-7 -4 -4 -10z"/>
<path d="M11381 10464 c0 -11 3 -14 6 -6 3 7 2 16 -1 19 -3 4 -6 -2 -5 -13z"/>
<path d="M12652 10450 c0 -14 2 -19 5 -12 2 6 2 18 0 25 -3 6 -5 1 -5 -13z"/>
<path d="M12682 10380 c0 -14 2 -19 5 -12 2 6 2 18 0 25 -3 6 -5 1 -5 -13z"/>
<path d="M11412 10360 c0 -14 2 -19 5 -12 2 6 2 18 0 25 -3 6 -5 1 -5 -13z"/>
<path d="M9922 10330 c0 -14 2 -19 5 -12 2 6 2 18 0 25 -3 6 -5 1 -5 -13z"/>
<path d="M11413 10230 c0 -47 2 -66 4 -42 2 23 2 61 0 85 -2 23 -4 4 -4 -43z"/>
<path d="M9923 10200 c0 -30 2 -43 4 -27 2 15 2 39 0 55 -2 15 -4 2 -4 -28z"/>
<path d="M12681 10104 c0 -11 3 -14 6 -6 3 7 2 16 -1 19 -3 4 -6 -2 -5 -13z"/>
<path d="M12652 10030 c0 -14 2 -19 5 -12 2 6 2 18 0 25 -3 6 -5 1 -5 -13z"/>
<path d="M11691 9954 c0 -11 3 -14 6 -6 3 7 2 16 -1 19 -3 4 -6 -2 -5 -13z"/>
<path d="M9981 9944 c0 -11 3 -14 6 -6 3 7 2 16 -1 19 -3 4 -6 -2 -5 -13z"/>
<path d="M11760 9840 c0 -5 5 -10 10 -10 6 0 10 5 10 10 0 6 -4 10 -10 10 -5
0 -10 -4 -10 -10z"/>
<path d="M13141 9824 c0 -11 3 -14 6 -6 3 7 2 16 -1 19 -3 4 -6 -2 -5 -13z"/>
<path d="M12530 9820 c0 -5 7 -10 15 -10 8 0 15 5 15 10 0 6 -7 10 -15 10 -8
0 -15 -4 -15 -10z"/>
<path d="M12470 9811 c0 -11 26 -22 34 -14 12 12 5 23 -14 23 -11 0 -20 -4
-20 -9z"/>
<path d="M11170 9730 c0 -5 7 -7 15 -4 8 4 15 8 15 10 0 2 -7 4 -15 4 -8 0
-15 -4 -15 -10z"/>
<path d="M12348 9733 c6 -2 18 -2 25 0 6 3 1 5 -13 5 -14 0 -19 -2 -12 -5z"/>
<path d="M10840 9556 c0 -9 30 -14 35 -6 4 6 -3 10 -14 10 -12 0 -21 -2 -21
-4z"/>
<path d="M10603 9523 c15 -2 37 -2 50 0 12 2 0 4 -28 4 -27 0 -38 -2 -22 -4z"/>
<path d="M9510 9305 c0 -8 5 -15 10 -15 6 0 10 7 10 15 0 8 -4 15 -10 15 -5 0
-10 -7 -10 -15z"/>
<path d="M9510 9230 c0 -5 7 -10 16 -10 8 0 12 5 9 10 -3 6 -10 10 -16 10 -5
0 -9 -4 -9 -10z"/>
<path d="M9848 9223 c161 -2 422 -2 580 0 158 1 26 2 -293 2 -319 0 -448 -1
-287 -2z"/>
<path d="M10905 9160 c3 -5 8 -10 11 -10 2 0 4 5 4 10 0 6 -5 10 -11 10 -5 0
-7 -4 -4 -10z"/>
<path d="M12830 9140 c0 -5 7 -7 15 -4 8 4 15 8 15 10 0 2 -7 4 -15 4 -8 0
-15 -4 -15 -10z"/>
<path d="M10965 9120 c-3 -5 1 -10 9 -10 9 0 16 5 16 10 0 6 -4 10 -9 10 -6 0
-13 -4 -16 -10z"/>
<path d="M12386 8685 c-3 -8 -1 -15 4 -15 6 0 10 7 10 15 0 8 -2 15 -4 15 -2
0 -6 -7 -10 -15z"/>
<path d="M12268 8623 c7 -3 16 -2 19 1 4 3 -2 6 -13 5 -11 0 -14 -3 -6 -6z"/>
<path d="M11350 8555 c0 -30 5 -55 10 -55 6 0 10 25 10 55 0 30 -4 55 -10 55
-5 0 -10 -25 -10 -55z"/>
<path d="M12248 8543 c7 -3 16 -2 19 1 4 3 -2 6 -13 5 -11 0 -14 -3 -6 -6z"/>
<path d="M10720 10380 c0 -5 5 -10 11 -10 27 0 51 -46 37 -72 -6 -13 -5 -18 7
-18 25 0 19 55 -10 85 -27 26 -45 32 -45 15z"/>
<path d="M10527 10243 c-3 -5 -1 -17 4 -28 7 -17 8 -17 8 8 1 27 -4 34 -12 20z"/>
<path d="M10550 10171 c0 -6 4 -13 10 -16 6 -3 7 1 4 9 -7 18 -14 21 -14 7z"/>
<path d="M10728 10154 c-28 -14 -38 -34 -18 -34 11 0 54 40 48 45 -1 2 -15 -3
-30 -11z"/>
<path d="M10610 10135 c-11 -13 -8 -15 20 -15 28 0 31 2 20 15 -7 8 -16 15
-20 15 -4 0 -13 -7 -20 -15z"/>
<path d="M12031 10324 c0 -11 3 -14 6 -6 3 7 2 16 -1 19 -3 4 -6 -2 -5 -13z"/>
<path d="M12002 10270 c0 -14 2 -19 5 -12 2 6 2 18 0 25 -3 6 -5 1 -5 -13z"/>
<path d="M12160 10251 c0 -17 18 -21 24 -6 3 9 0 15 -9 15 -8 0 -15 -4 -15 -9z"/>
<path d="M12027 10190 c3 -11 9 -17 15 -14 5 3 4 12 -3 20 -16 19 -18 18 -12
-6z"/>
<path d="M13552 8790 c0 -14 2 -19 5 -12 2 6 2 18 0 25 -3 6 -5 1 -5 -13z"/>
<path d="M13392 8710 c-10 -17 -10 -20 3 -20 8 0 15 9 15 20 0 11 -1 20 -3 20
-1 0 -8 -9 -15 -20z"/>
<path d="M13583 8695 c0 -22 2 -30 4 -17 2 12 2 30 0 40 -3 9 -5 -1 -4 -23z"/>
<path d="M13220 8539 c0 -5 5 -7 10 -4 6 3 10 8 10 11 0 2 -4 4 -10 4 -5 0
-10 -5 -10 -11z"/>
<path d="M13270 8535 c0 -8 2 -15 4 -15 2 0 6 7 10 15 3 8 1 15 -4 15 -6 0
-10 -7 -10 -15z"/>
<path d="M13065 8390 c-3 -5 -1 -10 4 -10 6 0 11 5 11 10 0 6 -2 10 -4 10 -3
0 -8 -4 -11 -10z"/>
<path d="M12880 8199 c0 -5 5 -7 10 -4 6 3 10 8 10 11 0 2 -4 4 -10 4 -5 0
-10 -5 -10 -11z"/>
<path d="M13713 8125 c0 -22 2 -30 4 -17 2 12 2 30 0 40 -3 9 -5 -1 -4 -23z"/>
<path d="M13015 7800 c-15 -7 -9 -9 25 -9 33 -1 41 2 30 9 -18 12 -28 12 -55
0z"/>
<path d="M12903 7793 c9 -2 25 -2 35 0 9 3 1 5 -18 5 -19 0 -27 -2 -17 -5z"/>
<path d="M13118 7793 c6 -2 18 -2 25 0 6 3 1 5 -13 5 -14 0 -19 -2 -12 -5z"/>
<path d="M13763 7755 c0 -22 2 -30 4 -17 2 12 2 30 0 40 -3 9 -5 -1 -4 -23z"/>
<path d="M12788 7773 c7 -3 16 -2 19 1 4 3 -2 6 -13 5 -11 0 -14 -3 -6 -6z"/>
<path d="M11356 7613 c-9 -10 -7 -93 3 -93 5 0 11 21 13 46 3 44 -2 61 -16 47z"/>
<path d="M13789 7568 c-5 -26 -3 -98 3 -98 4 0 8 23 8 50 0 28 -2 50 -5 50 -3
0 -5 -1 -6 -2z"/>
<path d="M11355 7389 c-10 -15 3 -25 16 -12 7 7 7 13 1 17 -6 3 -14 1 -17 -5z"/>
<path d="M12305 7392 c-13 -13 -2 -20 30 -19 42 1 47 22 5 23 -16 1 -32 -1
-35 -4z"/>
<path d="M11633 7383 c120 -2 314 -2 430 0 117 1 19 2 -218 2 -236 0 -332 -1
-212 -2z"/>
<path d="M13691 7274 c0 -11 3 -14 6 -6 3 7 2 16 -1 19 -3 4 -6 -2 -5 -13z"/>
<path d="M13710 7091 c0 -28 5 -51 10 -51 6 0 10 20 10 44 0 25 -4 48 -10 51
-6 4 -10 -13 -10 -44z"/>
<path d="M11350 6720 c0 -5 4 -10 9 -10 6 0 13 5 16 10 3 6 -1 10 -9 10 -9 0
-16 -4 -16 -10z"/>
<path d="M11398 6723 c7 -3 16 -2 19 1 4 3 -2 6 -13 5 -11 0 -14 -3 -6 -6z"/>
<path d="M11463 6723 c9 -2 23 -2 30 0 6 3 -1 5 -18 5 -16 0 -22 -2 -12 -5z"/>
<path d="M12386 6715 c4 -8 8 -15 10 -15 2 0 4 7 4 15 0 8 -4 15 -10 15 -5 0
-7 -7 -4 -15z"/>
<path d="M13581 6694 c0 -11 3 -14 6 -6 3 7 2 16 -1 19 -3 4 -6 -2 -5 -13z"/>
<path d="M11350 6556 c0 -84 4 -136 10 -136 6 0 10 50 10 129 0 76 -4 132 -10
136 -6 4 -10 -42 -10 -129z"/>
<path d="M12441 6654 c0 -11 3 -14 6 -6 3 7 2 16 -1 19 -3 4 -6 -2 -5 -13z"/>
<path d="M13520 6630 c-13 -8 -12 -10 3 -10 9 0 17 5 17 10 0 12 -1 12 -20 0z"/>
<path d="M13787 6633 c-3 -5 -1 -17 4 -28 7 -17 8 -17 8 8 1 27 -4 34 -12 20z"/>
<path d="M12628 6493 c7 -3 16 -2 19 1 4 3 -2 6 -13 5 -11 0 -14 -3 -6 -6z"/>
<path d="M13233 6443 c9 -2 25 -2 35 0 9 3 1 5 -18 5 -19 0 -27 -2 -17 -5z"/>
<path d="M13143 6413 c9 -2 23 -2 30 0 6 3 -1 5 -18 5 -16 0 -22 -2 -12 -5z"/>
<path d="M12968 6393 c12 -2 32 -2 45 0 12 2 2 4 -23 4 -25 0 -35 -2 -22 -4z"/>
<path d="M13760 6275 c0 -30 -4 -55 -10 -55 -5 0 -10 -4 -10 -10 0 -5 7 -10
15 -10 12 0 15 14 15 65 0 36 -2 65 -5 65 -3 0 -5 -25 -5 -55z"/>
<path d="M13733 6075 c0 -22 2 -30 4 -17 2 12 2 30 0 40 -3 9 -5 -1 -4 -23z"/>
<path d="M13713 5940 c0 -30 2 -43 4 -27 2 15 2 39 0 55 -2 15 -4 2 -4 -28z"/>
<path d="M13663 5695 c0 -22 2 -30 4 -17 2 12 2 30 0 40 -3 9 -5 -1 -4 -23z"/>
<path d="M13633 5585 c0 -22 2 -30 4 -17 2 12 2 30 0 40 -3 9 -5 -1 -4 -23z"/>
<path d="M13602 5470 c0 -14 2 -19 5 -12 2 6 2 18 0 25 -3 6 -5 1 -5 -13z"/>
<path d="M13581 5374 c0 -11 3 -14 6 -6 3 7 2 16 -1 19 -3 4 -6 -2 -5 -13z"/>
<path d="M13552 5290 c0 -14 2 -19 5 -12 2 6 2 18 0 25 -3 6 -5 1 -5 -13z"/>
<path d="M13532 5220 c0 -14 2 -19 5 -12 2 6 2 18 0 25 -3 6 -5 1 -5 -13z"/>
<path d="M8523 8543 c6 -9 1465 -8 1474 1 4 3 -328 6 -736 6 -408 0 -740 -3
-738 -7z"/>
<path d="M10063 8543 c9 -2 23 -2 30 0 6 3 -1 5 -18 5 -16 0 -22 -2 -12 -5z"/>
<path d="M10218 8543 c50 -2 134 -2 185 0 50 1 9 3 -93 3 -102 0 -143 -2 -92
-3z"/>
<path d="M8478 8513 c7 -3 16 -2 19 1 4 3 -2 6 -13 5 -11 0 -14 -3 -6 -6z"/>
<path d="M10550 8512 c0 -5 7 -9 15 -9 8 0 15 4 15 9 0 4 -7 8 -15 8 -8 0 -15
-4 -15 -8z"/>
<path d="M8441 8484 c-16 -37 -14 -46 9 -27 21 18 26 38 11 47 -4 3 -13 -6
-20 -20z"/>
<path d="M10621 8394 c0 -11 3 -14 6 -6 3 7 2 16 -1 19 -3 4 -6 -2 -5 -13z"/>
<path d="M8674 8244 c-4 -15 -3 -156 2 -313 10 -311 12 -1066 4 -1251 l-5
-115 730 -6 c520 -4 764 -9 847 -19 118 -14 118 -14 142 9 22 21 23 26 13 54
-15 41 -15 1073 0 1407 6 129 8 240 6 247 -4 10 -184 13 -869 13 l-864 0 -6
-26z"/>
<path d="M8434 8065 c0 -66 1 -92 3 -57 2 34 2 88 0 120 -2 31 -3 3 -3 -63z"/>
<path d="M8629 8153 c-3 -19 3 -338 7 -342 2 -2 4 75 4 172 0 98 -2 177 -5
177 -3 0 -6 -3 -6 -7z"/>
<path d="M10452 8090 c0 -14 2 -19 5 -12 2 6 2 18 0 25 -3 6 -5 1 -5 -13z"/>
<path d="M10623 8055 c0 -27 2 -38 4 -22 2 15 2 37 0 50 -2 12 -4 0 -4 -28z"/>
<path d="M10623 7940 c0 -25 2 -35 4 -22 2 12 2 32 0 45 -2 12 -4 2 -4 -23z"/>
<path d="M8434 7555 c0 -137 2 -195 3 -128 2 67 2 179 0 250 -1 70 -3 16 -3
-122z"/>
<path d="M10624 7320 c0 -80 2 -112 3 -72 2 39 2 105 0 145 -1 39 -3 7 -3 -73z"/>
<path d="M8432 7265 c0 -16 2 -22 5 -12 2 9 2 23 0 30 -3 6 -5 -1 -5 -18z"/>
<path d="M8633 6665 c0 -44 2 -61 4 -37 2 23 2 59 0 80 -2 20 -4 1 -4 -43z"/>
<path d="M8740 6520 c0 -5 5 -10 10 -10 6 0 10 5 10 10 0 6 -4 10 -10 10 -5 0
-10 -4 -10 -10z"/>
<path d="M8890 6520 c20 -13 70 -13 70 0 0 6 -19 10 -42 10 -32 0 -39 -3 -28
-10z"/>
<path d="M9125 6520 c75 -12 153 -12 135 0 -8 5 -53 9 -100 9 -79 -2 -81 -2
-35 -9z"/>
<path d="M9398 6523 c7 -3 16 -2 19 1 4 3 -2 6 -13 5 -11 0 -14 -3 -6 -6z"/>
<path d="M9443 6523 c10 -10 256 -12 262 -2 3 5 -53 8 -131 8 -75 0 -134 -2
-131 -6z"/>
<path d="M9760 6520 c0 -5 10 -10 23 -10 18 0 19 2 7 10 -19 13 -30 13 -30 0z"/>
<path d="M10223 6493 c9 -2 25 -2 35 0 9 3 1 5 -18 5 -19 0 -27 -2 -17 -5z"/>
<path d="M10617 6410 c-3 -11 -1 -20 4 -20 5 0 9 9 9 20 0 11 -2 20 -4 20 -2
0 -6 -9 -9 -20z"/>
<path d="M8625 6320 c-3 -5 1 -10 10 -10 9 0 13 5 10 10 -3 6 -8 10 -10 10 -2
0 -7 -4 -10 -10z"/>
<path d="M8668 6323 c6 -2 18 -2 25 0 6 3 1 5 -13 5 -14 0 -19 -2 -12 -5z"/>
<path d="M8755 6320 c-4 -6 33 -10 105 -10 72 0 109 4 105 10 -3 6 -50 10
-105 10 -55 0 -102 -4 -105 -10z"/>
<path d="M9245 6320 c-4 -6 15 -10 49 -10 31 0 56 5 56 10 0 6 -22 10 -49 10
-28 0 -53 -4 -56 -10z"/>
<path d="M10435 6320 c-3 -5 1 -10 9 -10 9 0 16 5 16 10 0 6 -4 10 -9 10 -6 0
-13 -4 -16 -10z"/>
<path d="M10510 6320 c0 -5 9 -10 20 -10 11 0 20 5 20 10 0 6 -9 10 -20 10
-11 0 -20 -4 -20 -10z"/>
<path d="M12955 7220 c4 -6 11 -8 16 -5 14 9 11 15 -7 15 -8 0 -12 -5 -9 -10z"/>
<path d="M13020 7226 c0 -2 7 -6 15 -10 8 -3 15 -1 15 4 0 6 -7 10 -15 10 -8
0 -15 -2 -15 -4z"/>
<path d="M13100 7171 c0 -6 5 -13 10 -16 6 -3 10 1 10 9 0 9 -4 16 -10 16 -5
0 -10 -4 -10 -9z"/>
<path d="M12883 7125 c0 -22 2 -30 4 -17 2 12 2 30 0 40 -3 9 -5 -1 -4 -23z"/>
<path d="M12880 7044 c0 -10 31 -36 37 -31 3 3 -2 13 -10 22 -16 15 -27 19
-27 9z"/>
<path d="M13090 7010 c-12 -23 -5 -26 16 -6 16 17 18 26 4 26 -5 0 -14 -9 -20
-20z"/>
<path d="M12988 6963 c6 -2 18 -2 25 0 6 3 1 5 -13 5 -14 0 -19 -2 -12 -5z"/>
<path d="M10990 5707 c0 -12 4 -16 13 -10 6 4 111 10 232 13 l220 5 -233 5
c-219 5 -232 4 -232 -13z"/>
<path d="M11679 5709 c38 -5 71 -4 80 1 11 6 -11 9 -64 8 l-80 -1 64 -8z"/>
<path d="M11798 5713 c12 -2 30 -2 40 0 9 3 -1 5 -23 4 -22 0 -30 -2 -17 -4z"/>
<path d="M9519 5648 c-5 -15 -5 -384 0 -423 3 -30 8 39 12 170 3 121 7 226 10
234 2 7 -2 16 -8 18 -7 3 -13 3 -14 1z"/>
<path d="M10993 5600 c0 -30 2 -43 4 -27 2 15 2 39 0 55 -2 15 -4 2 -4 -28z"/>
<path d="M11921 5634 c0 -11 3 -14 6 -6 3 7 2 16 -1 19 -3 4 -6 -2 -5 -13z"/>
<path d="M10273 5613 c9 -2 25 -2 35 0 9 3 1 5 -18 5 -19 0 -27 -2 -17 -5z"/>
<path d="M10994 5395 c0 -60 1 -84 3 -52 2 32 2 81 0 110 -2 29 -3 3 -3 -58z"/>
<path d="M10991 5228 c-1 -46 2 -58 15 -58 8 0 12 5 9 11 -4 5 -10 31 -15 57
l-8 47 -1 -57z"/>
<path d="M9524 5070 c0 -58 1 -81 3 -52 2 28 2 76 0 105 -2 28 -3 5 -3 -53z"/>
<path d="M11108 5090 c12 -11 26 -20 31 -20 6 0 3 9 -6 20 -10 11 -24 20 -32
20 -11 0 -9 -6 7 -20z"/>
<path d="M11160 5050 c0 -5 7 -10 16 -10 8 0 12 5 9 10 -3 6 -10 10 -16 10 -5
0 -9 -4 -9 -10z"/>
<path d="M11225 4970 c3 -5 8 -10 11 -10 2 0 4 5 4 10 0 6 -5 10 -11 10 -5 0
-7 -4 -4 -10z"/>
<path d="M12118 4973 c7 -3 16 -2 19 1 4 3 -2 6 -13 5 -11 0 -14 -3 -6 -6z"/>
<path d="M12275 4950 c-4 -6 3 -10 14 -10 25 0 27 6 6 13 -8 4 -17 2 -20 -3z"/>
<path d="M11888 4943 c7 -3 16 -2 19 1 4 3 -2 6 -13 5 -11 0 -14 -3 -6 -6z"/>
<path d="M10031 4894 c0 -11 3 -14 6 -6 3 7 2 16 -1 19 -3 4 -6 -2 -5 -13z"/>
<path d="M11765 4870 c-3 -5 -1 -10 4 -10 6 0 11 5 11 10 0 6 -2 10 -4 10 -3
0 -8 -4 -11 -10z"/>
<path d="M11300 4854 c0 -8 5 -12 10 -9 6 3 10 10 10 16 0 5 -4 9 -10 9 -5 0
-10 -7 -10 -16z"/>
<path d="M12420 4866 c0 -9 30 -14 35 -6 4 6 -3 10 -14 10 -12 0 -21 -2 -21
-4z"/>
<path d="M10001 4834 c0 -11 3 -14 6 -6 3 7 2 16 -1 19 -3 4 -6 -2 -5 -13z"/>
<path d="M11384 4600 c0 -52 1 -74 3 -47 2 26 2 68 0 95 -2 26 -3 4 -3 -48z"/>
<path d="M9510 4605 c0 -25 5 -45 10 -45 6 0 10 20 10 45 0 25 -4 45 -10 45
-5 0 -10 -20 -10 -45z"/>
<path d="M12651 4544 c0 -11 3 -14 6 -6 3 7 2 16 -1 19 -3 4 -6 -2 -5 -13z"/>
<path d="M11533 4465 c0 -22 2 -30 4 -17 2 12 2 30 0 40 -3 9 -5 -1 -4 -23z"/>
<path d="M11382 4455 c0 -16 2 -22 5 -12 2 9 2 23 0 30 -3 6 -5 -1 -5 -18z"/>
<path d="M11532 4375 c0 -16 2 -22 5 -12 2 9 2 23 0 30 -3 6 -5 -1 -5 -18z"/>
<path d="M11350 4325 c0 -8 5 -15 10 -15 6 0 10 7 10 15 0 8 -4 15 -10 15 -5
0 -10 -7 -10 -15z"/>
<path d="M13161 4284 c0 -11 3 -14 6 -6 3 7 2 16 -1 19 -3 4 -6 -2 -5 -13z"/>
<path d="M11331 4264 c0 -11 3 -14 6 -6 3 7 2 16 -1 19 -3 4 -6 -2 -5 -13z"/>
<path d="M11275 4170 c-3 -5 1 -10 10 -10 9 0 13 5 10 10 -3 6 -8 10 -10 10
-2 0 -7 -4 -10 -10z"/>
<path d="M11710 4043 c-3 -87 2 -1658 5 -1662 3 -2 5 372 5 832 0 460 -2 837
-5 837 -3 0 -5 -3 -5 -7z"/>
<path d="M12364 3927 c-2 -7 0 -24 5 -38 9 -22 10 -21 10 14 1 37 -5 48 -15
24z"/>
<path d="M10295 3900 c3 -5 12 -7 20 -3 21 7 19 13 -6 13 -11 0 -18 -4 -14
-10z"/>
<path d="M10855 3840 c3 -5 8 -10 11 -10 2 0 4 5 4 10 0 6 -5 10 -11 10 -5 0
-7 -4 -4 -10z"/>
<path d="M12931 3834 c0 -11 3 -14 6 -6 3 7 2 16 -1 19 -3 4 -6 -2 -5 -13z"/>
<path d="M10553 3823 c9 -2 23 -2 30 0 6 3 -1 5 -18 5 -16 0 -22 -2 -12 -5z"/>
<path d="M10673 3819 c12 -7 27 -7 45 0 25 9 24 9 -18 10 -36 0 -41 -2 -27
-10z"/>
<path d="M12826 3655 c-3 -8 -1 -15 4 -15 6 0 10 7 10 15 0 8 -2 15 -4 15 -2
0 -6 -7 -10 -15z"/>
<path d="M9521 3494 c0 -11 3 -14 6 -6 3 7 2 16 -1 19 -3 4 -6 -2 -5 -13z"/>
<path d="M9522 3295 c0 -16 2 -22 5 -12 2 9 2 23 0 30 -3 6 -5 -1 -5 -18z"/>
<path d="M9522 2990 c0 -14 2 -19 5 -12 2 6 2 18 0 25 -3 6 -5 1 -5 -13z"/>
<path d="M9521 2884 c0 -11 3 -14 6 -6 3 7 2 16 -1 19 -3 4 -6 -2 -5 -13z"/>
<path d="M9523 2775 c0 -22 2 -30 4 -17 2 12 2 30 0 40 -3 9 -5 -1 -4 -23z"/>
<path d="M9524 2595 c0 -49 1 -71 3 -48 2 23 2 64 0 90 -2 26 -3 8 -3 -42z"/>
<path d="M9523 2340 c0 -41 2 -58 4 -37 2 20 2 54 0 75 -2 20 -4 3 -4 -38z"/>
<path d="M11548 2223 c7 -3 16 -2 19 1 4 3 -2 6 -13 5 -11 0 -14 -3 -6 -6z"/>
<path d="M9522 2155 c0 -16 2 -22 5 -12 2 9 2 23 0 30 -3 6 -5 -1 -5 -18z"/>
<path d="M9514 2049 c-3 -6 -1 -16 5 -22 8 -8 11 -5 11 11 0 24 -5 28 -16 11z"/>
<path d="M11315 2040 c3 -5 8 -10 11 -10 2 0 4 5 4 10 0 6 -5 10 -11 10 -5 0
-7 -4 -4 -10z"/>
<path d="M9510 1951 c0 -17 5 -33 10 -36 6 -4 10 8 10 29 0 20 -4 36 -10 36
-5 0 -10 -13 -10 -29z"/>
<path d="M9514 1869 c-3 -6 -1 -16 5 -22 8 -8 11 -5 11 11 0 24 -5 28 -16 11z"/>
<path d="M10935 1780 c4 -6 11 -8 16 -5 14 9 11 15 -7 15 -8 0 -12 -5 -9 -10z"/>
<path d="M10460 1500 c0 -5 7 -10 16 -10 8 0 12 5 9 10 -3 6 -10 10 -16 10 -5
0 -9 -4 -9 -10z"/>
<path d="M10188 1363 c6 -2 18 -2 25 0 6 3 1 5 -13 5 -14 0 -19 -2 -12 -5z"/>
<path d="M9888 1233 c6 -2 18 -2 25 0 6 3 1 5 -13 5 -14 0 -19 -2 -12 -5z"/>
<path d="M9517 1173 c-4 -3 -7 -11 -7 -17 0 -6 5 -5 12 2 6 6 9 14 7 17 -3 3
-9 2 -12 -2z"/>
<path d="M9628 1133 c6 -2 18 -2 25 0 6 3 1 5 -13 5 -14 0 -19 -2 -12 -5z"/>
<path d="M9510 1104 c0 -11 5 -14 16 -10 9 3 21 6 27 6 16 0 -14 20 -30 20 -7
0 -13 -7 -13 -16z"/>
<path d="M10580 4649 c0 -5 5 -7 10 -4 6 3 10 8 10 11 0 2 -4 4 -10 4 -5 0
-10 -5 -10 -11z"/>
<path d="M10698 4653 c6 -2 18 -2 25 0 6 3 1 5 -13 5 -14 0 -19 -2 -12 -5z"/>
<path d="M10740 4630 c0 -5 7 -10 16 -10 8 0 12 5 9 10 -3 6 -10 10 -16 10 -5
0 -9 -4 -9 -10z"/>
<path d="M10525 4559 c-4 -18 -3 -35 4 -42 8 -8 11 0 11 31 0 50 -6 54 -15 11z"/>
<path d="M10776 4582 c-2 -4 -1 -14 5 -22 7 -12 9 -10 9 8 0 23 -5 28 -14 14z"/>
<path d="M10625 4530 c-3 -5 -1 -10 4 -10 6 0 11 5 11 10 0 6 -2 10 -4 10 -3
0 -8 -4 -11 -10z"/>
<path d="M10773 4504 c-3 -8 -1 -20 6 -27 8 -8 11 -4 11 16 0 30 -7 35 -17 11z"/>
<path d="M10750 4439 c0 -5 -4 -7 -10 -4 -5 3 -10 1 -10 -4 0 -6 7 -11 15 -11
8 0 15 7 15 15 0 8 -2 15 -5 15 -3 0 -5 -5 -5 -11z"/>
<path d="M12147 4467 c-3 -8 -1 -20 4 -28 6 -10 9 -7 9 14 0 29 -5 35 -13 14z"/>
<path d="M12032 4450 c0 -14 2 -19 5 -12 2 6 2 18 0 25 -3 6 -5 1 -5 -13z"/>
<path d="M12147 4390 c-3 -11 -2 -20 3 -20 12 0 21 28 11 35 -5 2 -11 -4 -14
-15z"/>
<path d="M12050 4350 c0 -5 9 -10 21 -10 11 0 17 5 14 10 -3 6 -13 10 -21 10
-8 0 -14 -4 -14 -10z"/>
<path d="M12120 4350 c0 -5 5 -10 10 -10 6 0 10 5 10 10 0 6 -4 10 -10 10 -5
0 -10 -4 -10 -10z"/>
</g>
</svg>
